<?xml version="1.0" standalone="no"?>
<!DOCTYPE svg PUBLIC "-//W3C//DTD SVG 20010904//EN"
 "http://www.w3.org/TR/2001/REC-SVG-20010904/DTD/svg10.dtd">
<svg version="1.0" xmlns="http://www.w3.org/2000/svg"
 width="2127.000000pt" height="512.000000pt" viewBox="0 0 2127.000000 512.000000"
 preserveAspectRatio="xMidYMid meet">
<metadata>
Created by potrace 1.16, written by Peter Selinger 2001-2019
</metadata>
<g transform="translate(0.000000,512.000000) scale(0.100000,-0.100000)"
fill="#000000" stroke="none">
<path d="M15925 4542 c-33 -33 -89 -92 -125 -131 -36 -40 -103 -111 -149 -159
-46 -48 -132 -139 -191 -202 -59 -63 -129 -137 -155 -165 -26 -27 -109 -115
-184 -194 -75 -79 -175 -185 -223 -235 -48 -50 -111 -118 -140 -151 -29 -33
-69 -75 -88 -95 -72 -72 -90 -104 -90 -163 0 -41 4 -56 16 -61 9 -3 139 -6
289 -6 208 0 276 -3 282 -12 4 -7 10 -359 13 -783 5 -704 7 -773 23 -807 9
-21 17 -47 17 -59 0 -20 33 -101 88 -219 27 -57 76 -127 122 -171 15 -14 29
-29 31 -35 5 -11 104 -94 133 -111 100 -59 263 -122 344 -133 40 -5 83 -15 95
-22 16 -9 128 -12 449 -13 234 0 430 4 434 8 5 5 10 174 12 376 4 365 4 369
-17 390 -22 22 -90 29 -246 23 -102 -3 -271 29 -328 62 -102 60 -172 149 -198
252 -18 71 -19 118 -19 645 0 556 0 569 20 589 19 19 33 20 379 20 275 0 361
3 368 13 12 15 17 599 5 641 l-8 28 -374 0 c-302 1 -379 3 -397 14 l-23 14 -2
453 -3 452 -50 3 c-49 3 -51 2 -110 -56z"/>
<path d="M2565 4550 c-33 -4 -85 -14 -115 -23 -30 -8 -80 -18 -110 -21 -30 -4
-71 -13 -90 -21 -19 -7 -82 -28 -140 -46 -58 -18 -112 -36 -120 -41 -8 -4 -35
-17 -60 -28 -25 -11 -52 -24 -60 -29 -8 -5 -26 -14 -40 -20 -14 -6 -47 -24
-75 -41 -27 -16 -61 -35 -75 -42 -31 -15 -91 -60 -200 -150 -134 -110 -305
-299 -364 -403 -73 -128 -109 -196 -127 -235 -12 -25 -29 -63 -40 -86 -10 -22
-19 -49 -19 -59 0 -10 -7 -26 -15 -35 -9 -10 -20 -44 -25 -78 -6 -33 -17 -76
-26 -97 -8 -20 -19 -74 -24 -118 -4 -45 -16 -122 -25 -172 -20 -105 -17 -398
4 -450 7 -16 16 -74 21 -130 5 -55 18 -123 30 -153 11 -29 20 -61 20 -73 0
-11 9 -41 19 -67 11 -26 32 -78 46 -117 80 -213 242 -455 415 -618 30 -29 66
-64 80 -78 34 -35 146 -121 189 -145 61 -34 71 -41 88 -56 10 -9 34 -23 53
-32 19 -8 42 -20 50 -25 31 -20 147 -71 161 -71 8 0 28 -9 44 -20 17 -11 40
-20 53 -20 12 0 49 -11 82 -25 33 -14 72 -25 88 -25 15 0 52 -9 82 -19 30 -11
100 -25 154 -31 55 -6 111 -16 124 -21 14 -6 132 -10 261 -11 180 -1 254 3
311 15 41 9 116 22 165 31 132 21 233 44 257 57 12 7 43 18 68 25 43 12 106
35 200 76 49 21 54 24 95 52 37 27 90 24 122 -6 14 -12 49 -55 79 -95 75 -99
108 -130 148 -137 19 -4 257 -6 528 -5 585 1 567 -3 483 94 -22 26 -58 68 -81
93 -22 26 -122 146 -221 267 -100 121 -193 233 -208 249 -15 16 -50 59 -78 95
-43 55 -51 72 -50 105 1 21 8 46 16 55 8 9 32 50 53 91 21 41 43 82 50 90 6 8
15 33 19 55 3 21 15 55 24 75 10 19 22 53 26 75 3 21 13 51 20 66 8 14 19 65
25 112 6 47 18 103 26 124 24 55 23 566 0 631 -9 24 -20 82 -26 130 -6 48 -18
97 -26 110 -8 12 -19 41 -24 65 -22 102 -122 329 -198 447 -76 119 -87 136
-104 155 -55 64 -298 305 -323 321 -16 10 -34 24 -38 31 -4 7 -12 13 -18 13
-5 0 -37 19 -71 42 -34 24 -76 50 -93 59 -62 34 -171 87 -195 94 -14 4 -30 11
-36 16 -14 12 -144 56 -218 75 -33 8 -67 19 -76 24 -10 5 -48 14 -86 20 -37 6
-73 15 -79 20 -31 25 -617 40 -780 20z m460 -830 c148 -13 300 -60 416 -128
25 -15 64 -37 85 -49 43 -23 172 -136 220 -193 58 -68 164 -245 164 -275 0 -6
11 -33 25 -59 14 -26 25 -58 25 -72 0 -13 6 -40 14 -59 8 -19 20 -72 27 -117
15 -102 5 -385 -15 -433 -8 -18 -20 -59 -26 -91 -7 -32 -21 -74 -31 -94 -11
-19 -19 -42 -19 -52 0 -9 -5 -20 -11 -24 -6 -3 -18 -23 -26 -43 -49 -118 -197
-288 -318 -365 -33 -21 -71 -46 -85 -56 -125 -84 -297 -134 -535 -154 -98 -9
-363 28 -422 59 -15 8 -33 15 -40 15 -7 0 -44 17 -83 38 -164 86 -182 99 -315
230 -41 40 -77 82 -80 93 -4 10 -11 19 -16 19 -5 0 -19 19 -30 43 -10 23 -37
76 -59 117 -22 41 -40 81 -40 88 0 7 -8 29 -19 50 -10 20 -22 66 -26 102 -4
35 -14 82 -21 104 -9 25 -14 85 -14 176 0 91 5 151 14 176 7 22 17 69 21 104
4 36 18 88 31 116 13 28 24 56 24 62 0 16 96 198 117 221 10 11 27 32 38 48
35 49 170 177 231 218 90 62 238 129 339 155 151 39 259 46 440 30z"/>
<path d="M9783 3769 c-92 -6 -131 -13 -160 -29 -21 -11 -54 -20 -73 -20 -19 0
-59 -11 -88 -25 -30 -14 -59 -25 -65 -25 -11 0 -101 -39 -162 -71 -49 -26 -90
-52 -260 -166 -42 -28 -244 -253 -286 -318 -18 -27 -42 -66 -54 -85 -13 -19
-32 -53 -43 -75 -10 -22 -31 -63 -46 -91 -14 -29 -26 -63 -26 -76 0 -13 -9
-39 -19 -59 -11 -19 -22 -62 -26 -94 -4 -32 -16 -77 -25 -99 -34 -79 -34 -593
0 -655 6 -13 16 -52 21 -87 5 -36 18 -83 29 -104 11 -22 20 -48 20 -60 0 -11
23 -63 50 -116 28 -53 50 -102 50 -109 0 -6 9 -22 20 -35 11 -13 20 -27 20
-31 0 -4 23 -36 50 -71 28 -35 61 -76 73 -92 36 -47 182 -188 234 -226 26 -19
54 -41 61 -48 7 -6 20 -12 27 -12 7 0 26 -10 42 -23 15 -12 39 -28 53 -35 26
-12 42 -22 101 -59 19 -13 46 -23 60 -23 13 0 47 -12 74 -25 28 -14 57 -25 66
-25 9 0 40 -8 70 -19 31 -10 84 -22 119 -26 36 -4 83 -14 105 -22 58 -21 453
-20 511 0 23 9 72 18 110 22 38 4 91 16 117 26 26 11 58 19 70 19 12 0 46 11
75 25 30 14 64 25 77 25 12 0 34 9 47 20 14 11 36 25 49 30 59 27 146 83 273
174 59 42 155 144 259 276 71 89 204 341 191 361 -3 5 -199 9 -450 9 l-445 0
-85 -82 c-46 -46 -98 -91 -115 -100 -17 -9 -38 -23 -48 -32 -10 -9 -25 -16
-35 -16 -9 0 -36 -9 -59 -19 -23 -11 -64 -22 -92 -26 -27 -4 -76 -14 -107 -22
-49 -13 -70 -14 -135 -4 -43 7 -109 17 -147 22 -38 6 -85 19 -105 30 -20 10
-43 19 -53 19 -9 0 -20 5 -23 10 -4 6 -24 22 -45 35 -54 34 -170 153 -186 191
-7 17 -20 36 -28 44 -9 7 -16 18 -16 24 0 7 -9 29 -20 50 -10 21 -24 64 -31
95 -6 31 -18 68 -25 83 -18 34 -18 69 -1 92 13 17 70 18 1175 17 l1162 0 11
21 c18 34 7 444 -13 483 -9 17 -19 59 -23 95 -4 36 -15 81 -25 100 -9 19 -20
49 -24 65 -8 34 -47 124 -83 190 -20 36 -114 179 -146 219 -42 55 -202 212
-234 231 -18 11 -33 23 -33 27 0 4 -14 15 -32 24 -17 9 -36 20 -42 25 -26 22
-102 69 -111 69 -6 0 -22 8 -35 17 -28 20 -117 59 -169 75 -19 5 -44 16 -55
23 -12 8 -51 19 -87 24 -36 6 -79 17 -95 25 -61 31 -411 43 -681 25z m375
-668 c10 -5 50 -14 90 -19 40 -6 87 -20 106 -31 18 -12 38 -21 44 -21 20 0
137 -84 188 -135 71 -70 150 -198 168 -271 4 -15 16 -47 27 -71 22 -49 24 -64
7 -81 -9 -9 -180 -12 -710 -12 -704 0 -757 3 -744 36 2 6 8 33 11 60 7 46 37
125 70 184 7 14 22 41 32 60 23 46 125 147 194 193 31 20 59 37 63 37 4 0 31
11 59 24 29 13 75 27 102 31 28 3 57 10 65 16 19 11 206 12 228 0z"/>
<path d="M12870 3771 c-52 -5 -127 -18 -166 -30 -39 -11 -78 -21 -87 -21 -14
0 -106 -35 -221 -85 -21 -9 -50 -24 -65 -34 -14 -10 -51 -34 -81 -54 -48 -30
-124 -101 -214 -200 -14 -15 -26 -34 -26 -41 0 -8 -7 -19 -15 -26 -8 -7 -20
-31 -27 -54 -6 -22 -17 -48 -24 -56 -8 -9 -20 -47 -28 -85 -9 -39 -20 -86 -26
-105 -27 -91 11 -430 55 -493 8 -12 15 -28 15 -36 0 -55 231 -301 283 -301 9
0 29 -11 45 -25 17 -14 39 -25 50 -25 10 0 30 -8 43 -19 13 -10 48 -24 77 -31
28 -6 54 -16 57 -20 3 -5 31 -14 63 -20 31 -6 80 -17 107 -25 28 -8 91 -21
140 -29 231 -37 295 -49 354 -67 35 -10 72 -19 81 -19 8 0 33 -9 55 -20 22
-11 45 -20 53 -20 7 0 23 -10 36 -22 13 -13 36 -30 51 -38 16 -8 43 -37 62
-64 31 -45 33 -54 33 -129 0 -65 -5 -90 -25 -133 -29 -62 -98 -126 -175 -162
-51 -25 -65 -27 -190 -27 -122 0 -139 2 -175 23 -22 12 -44 22 -50 22 -23 0
-121 78 -135 108 -8 17 -22 37 -31 44 -9 7 -19 33 -22 57 -3 24 -10 49 -17 55
-18 18 -849 21 -873 3 -17 -12 -18 -17 -4 -72 8 -33 18 -80 21 -105 4 -25 13
-54 21 -66 7 -12 17 -38 20 -58 4 -20 16 -47 26 -60 10 -13 23 -34 29 -47 57
-132 321 -359 477 -410 21 -6 47 -18 58 -24 11 -7 45 -18 75 -25 30 -7 64 -19
75 -25 11 -7 54 -16 95 -20 41 -3 104 -13 140 -21 77 -18 450 -22 502 -6 18 6
74 16 123 23 50 6 112 20 138 30 26 11 58 19 71 19 45 0 280 114 360 175 41
31 196 184 196 194 0 4 8 15 18 24 44 41 117 221 132 327 6 41 15 93 21 115
30 108 -34 436 -104 535 -9 13 -17 29 -17 34 0 14 -131 139 -181 173 -24 16
-80 47 -124 67 -44 21 -92 44 -106 52 -14 7 -46 16 -70 20 -24 4 -53 12 -64
17 -11 6 -60 19 -110 28 -49 10 -115 25 -145 33 -30 9 -80 16 -112 16 -32 0
-78 8 -105 19 -26 10 -79 21 -116 25 -37 4 -90 16 -118 26 -27 11 -57 20 -67
20 -19 0 -93 37 -164 83 -34 21 -51 40 -59 66 -6 20 -16 41 -21 48 -5 6 -12
36 -15 65 -5 47 -1 63 30 128 19 41 48 87 63 102 105 98 357 119 510 44 66
-33 128 -94 144 -142 7 -20 22 -52 32 -71 l20 -33 412 2 411 3 3 38 c8 95 -70
298 -160 416 -45 59 -167 181 -182 181 -3 0 -29 18 -58 40 -79 60 -253 136
-353 154 -22 4 -45 12 -51 17 -32 26 -506 46 -704 30z"/>
<path d="M5726 3683 c-296 -2 -433 -7 -443 -14 -11 -9 -13 -165 -12 -878 0
-476 4 -904 9 -951 13 -129 39 -270 55 -294 8 -11 17 -41 21 -66 3 -25 14 -58
24 -75 10 -16 20 -43 24 -59 4 -15 15 -40 25 -55 10 -14 36 -53 57 -86 45 -71
255 -287 322 -332 62 -42 192 -108 239 -123 21 -7 56 -21 79 -31 22 -10 49
-19 60 -19 10 0 32 -7 48 -16 17 -8 64 -20 105 -25 42 -6 103 -17 137 -25 74
-18 385 -21 489 -5 39 6 106 16 150 22 136 18 438 130 476 176 6 7 17 13 24
13 8 0 27 11 43 25 17 14 33 25 36 25 10 0 108 83 156 132 68 71 92 99 125
148 16 25 40 58 52 73 13 16 23 35 23 44 0 8 8 27 18 41 24 36 70 157 78 207
4 22 13 50 21 62 8 12 19 68 25 125 14 147 11 1927 -3 1945 -9 10 -94 13 -434
13 -233 0 -430 -3 -439 -6 -14 -6 -16 -90 -16 -853 0 -541 -4 -859 -10 -881
-6 -19 -15 -64 -20 -100 -24 -155 -139 -302 -284 -367 -138 -61 -347 -65 -466
-8 -114 54 -203 132 -242 210 -11 22 -26 51 -34 65 -7 14 -14 34 -14 45 0 12
-9 46 -20 78 -19 55 -20 82 -20 930 0 858 -2 907 -29 895 -4 -2 -199 -4 -435
-5z"/>
<path d="M20160 3615 c-17 -20 -4 -35 31 -35 22 0 29 -5 29 -19 0 -25 28 -53
49 -49 9 2 18 16 21 33 4 22 11 30 25 30 16 0 19 -6 17 -30 -2 -16 -10 -40
-18 -53 -23 -36 -7 -43 34 -16 36 25 49 47 51 92 1 18 -4 22 -28 22 -17 0 -31
6 -35 16 -7 19 -41 14 -41 -6 0 -10 -12 -16 -37 -18 -29 -2 -38 1 -38 12 0 8
-9 20 -19 26 -25 13 -26 13 -41 -5z"/>
<path d="M19237 3433 c-4 -3 -7 -15 -7 -26 0 -10 -9 -21 -20 -24 -11 -3 -20
-14 -20 -25 0 -11 -9 -22 -20 -25 -26 -7 -26 -33 -1 -33 13 0 29 -17 48 -50
15 -27 30 -50 33 -50 3 0 11 9 18 20 7 12 8 20 2 20 -5 0 -10 14 -10 30 0 23
-5 30 -19 30 -29 0 -34 16 -15 49 21 35 34 31 34 -9 0 -57 55 -52 62 5 3 29 1
35 -15 35 -12 0 -23 11 -30 30 -11 29 -26 38 -40 23z"/>
<path d="M19095 3208 c-7 -23 -22 -39 -47 -53 -25 -13 -40 -29 -43 -47 -4 -15
-15 -30 -26 -33 -10 -4 -22 -17 -25 -30 -3 -13 -15 -27 -25 -30 -20 -7 -25
-31 -9 -55 8 -12 13 -13 29 -3 13 8 22 9 26 3 3 -6 1 -10 -4 -10 -16 0 -13
-57 3 -63 8 -3 19 -22 26 -41 8 -25 19 -38 36 -42 35 -9 39 -43 15 -118 -29
-90 -28 -98 20 -120 44 -22 69 -59 69 -104 0 -29 28 -63 82 -97 17 -10 32 -32
38 -54 13 -47 37 -81 58 -81 10 0 25 -8 34 -19 8 -10 22 -21 29 -23 9 -3 14
-20 14 -49 0 -37 3 -44 21 -47 18 -2 23 3 28 32 6 33 28 65 156 230 16 21 30
45 30 52 0 7 8 19 18 26 10 7 21 21 25 31 3 9 13 17 20 17 10 0 18 21 26 59
10 51 16 62 50 84 28 19 41 36 48 66 10 36 8 43 -12 64 -13 12 -27 35 -30 50
-8 29 -12 32 -33 18 -19 -12 -5 -61 18 -61 25 0 30 -21 18 -69 -12 -48 -20
-50 -52 -16 -15 16 -41 28 -72 34 -27 5 -62 17 -79 25 -16 9 -35 16 -42 16 -6
0 -42 27 -80 60 -58 51 -70 57 -79 44 -8 -10 -13 -11 -16 -3 -3 8 -8 8 -18 -3
-26 -25 -52 -30 -71 -12 -26 23 -24 30 11 43 17 5 30 17 30 25 0 8 9 35 19 60
l20 45 -35 13 c-36 13 -43 27 -60 123 -6 29 -9 34 -12 18 -2 -13 -14 -31 -28
-42 -13 -10 -24 -25 -24 -32 -1 -19 -30 -54 -57 -68 -32 -16 -58 -14 -84 8
l-24 19 47 46 c30 28 55 65 67 96 l19 50 -27 0 c-22 0 -29 -6 -36 -32z"/>
<path d="M17923 2823 c-25 -10 -13 -44 22 -64 19 -12 35 -28 35 -36 0 -17 23
-39 57 -53 17 -7 23 -21 28 -65 15 -113 91 -115 83 -2 -3 37 -7 44 -41 62 -20
11 -40 29 -43 40 -10 31 -96 125 -113 124 -9 0 -22 -3 -28 -6z"/>
<path d="M18759 2756 c-16 -33 2 -76 30 -76 17 0 21 -9 27 -49 6 -48 6 -48 38
-42 22 5 35 16 47 40 8 18 21 36 29 41 21 13 1 104 -23 108 -16 3 -17 1 -7
-18 6 -11 10 -33 8 -48 -3 -23 -8 -27 -37 -27 -20 0 -37 6 -41 15 -40 86 -53
96 -71 56z"/>
<path d="M18219 2088 c-30 -33 -58 -67 -63 -77 -5 -9 -15 -20 -23 -24 -7 -4
-13 -13 -13 -20 -1 -7 -14 -28 -30 -47 -17 -19 -30 -39 -30 -44 0 -5 -7 -16
-15 -25 -8 -9 -24 -26 -35 -39 -12 -13 -26 -38 -32 -55 -15 -42 -57 -97 -74
-97 -8 0 -14 -10 -14 -24 0 -23 2 -24 32 -15 38 10 61 36 89 97 11 24 26 41
32 39 7 -2 14 -31 17 -68 l5 -64 55 -5 c54 -5 55 -5 52 -35 -2 -18 -15 -40
-32 -55 -38 -33 -76 -108 -62 -122 31 -31 94 32 108 105 13 75 64 56 64 -24 0
-26 -4 -51 -10 -54 -29 -18 13 -39 95 -49 71 -9 105 -44 105 -109 0 -40 3 -50
20 -54 11 -3 20 -11 20 -18 0 -7 9 -24 20 -38 11 -14 20 -36 20 -49 0 -24 37
-68 57 -68 6 0 13 9 16 20 3 12 14 20 26 20 12 0 21 4 21 10 0 5 14 23 30 40
38 39 41 80 5 80 -18 0 -25 -5 -25 -20 0 -22 -22 -36 -40 -25 -14 9 6 45 25
45 8 0 15 9 15 20 0 15 7 20 25 20 14 0 28 -7 31 -15 11 -27 33 -16 40 20 7
40 -1 83 -21 105 -47 52 -83 158 -91 270 -7 89 -12 98 -54 120 -22 11 -40 25
-40 30 0 6 -18 30 -40 54 -30 32 -42 55 -46 88 -6 42 -9 46 -54 65 -42 18 -48
24 -53 58 -4 22 -2 44 4 51 12 14 6 19 -42 32 -35 9 -36 8 -90 -50z"/>
<path d="M18814 1708 c-11 -18 -5 -60 12 -79 14 -16 20 -99 7 -99 -4 0 -26 21
-50 46 -28 31 -47 44 -58 40 -13 -5 -13 -9 -3 -28 7 -13 19 -27 26 -31 7 -5
17 -20 22 -33 5 -13 16 -24 25 -24 9 0 18 -12 21 -30 7 -34 24 -31 24 4 0 15
12 32 35 47 57 40 57 97 -1 120 -16 5 -24 18 -26 40 -3 35 -21 48 -34 27z"/>
<path d="M18960 1328 c0 -11 -8 -22 -20 -25 -23 -6 -27 -33 -5 -33 8 0 17 -11
21 -25 3 -14 12 -25 20 -25 7 0 19 -10 25 -22 7 -13 29 -40 51 -62 21 -21 42
-51 45 -67 4 -24 11 -29 33 -29 22 0 30 6 38 28 8 24 5 31 -27 60 -19 17 -38
32 -42 32 -4 0 -26 17 -49 37 -36 33 -40 41 -39 78 3 48 -3 61 -31 68 -15 4
-20 0 -20 -15z"/>
<path d="M19298 1073 c-21 -8 -38 -19 -38 -24 0 -5 -7 -9 -15 -9 -30 0 -75
-30 -75 -50 0 -11 -4 -20 -10 -20 -5 0 -10 -4 -10 -10 0 -5 7 -10 15 -10 8 0
15 4 15 8 0 5 6 9 13 10 6 1 24 4 40 8 26 6 27 5 27 -30 0 -39 -13 -46 -42
-19 -17 15 -18 15 -18 -5 0 -12 6 -22 14 -22 7 0 16 -13 20 -30 7 -36 22 -39
38 -6 6 14 20 26 32 28 44 6 26 88 -19 88 -21 0 -25 5 -25 31 l0 30 55 -6 c50
-7 55 -6 55 12 0 18 -18 44 -29 42 -4 0 -23 -7 -43 -16z"/>
<path d="M18303 778 c-6 -7 -13 -25 -17 -40 -3 -15 -12 -33 -19 -40 -8 -7 -12
-18 -10 -25 2 -6 0 -14 -5 -17 -5 -3 -184 -6 -397 -7 l-387 -1 -12 23 c-15 31
-39 31 -46 -1 -8 -36 -45 -39 -63 -5 l-14 27 -17 -27 c-15 -22 -22 -25 -53
-20 -49 7 -53 12 -50 47 1 18 -3 33 -10 35 -8 3 -13 -4 -13 -17 0 -13 -8 -24
-19 -27 -10 -3 -21 -16 -24 -29 l-4 -24 558 0 c549 0 558 0 564 20 4 13 15 20
31 20 19 0 24 5 24 25 0 18 5 25 19 25 19 0 37 42 26 60 -9 14 -51 12 -62 -2z"/>
</g>
</svg>
